<?xml version="1.0" encoding="UTF-8"?>
<svg version="1.1" xmlns="http://www.w3.org/2000/svg" width="2000" height="2000">
<path d="M0 0 C660 0 1320 0 2000 0 C2000 660 2000 1320 2000 2000 C1340 2000 680 2000 0 2000 C0 1340 0 680 0 0 Z " fill="#FEFEFE" transform="translate(0,0)"/>
<path d="M0 0 C39.7379979 -0.25177077 79.47589185 -0.44560231 119.21452796 -0.56171862 C123.90587802 -0.57547642 128.59722651 -0.58971396 133.28857422 -0.60424805 C134.68952013 -0.60857617 134.68952013 -0.60857617 136.11876798 -0.61299173 C151.24204634 -0.66085815 166.36486481 -0.74758886 181.48787034 -0.84868076 C197.00521055 -0.95154362 212.5223099 -1.01264551 228.03997707 -1.03497344 C237.61573178 -1.05006825 247.19018668 -1.09774115 256.76554126 -1.18708114 C263.3315498 -1.24522305 269.89688634 -1.26280273 276.46313363 -1.24851515 C280.25226472 -1.2414675 284.03912501 -1.25227155 287.82785225 -1.31126022 C291.93847559 -1.37479258 296.04427069 -1.35286844 300.15527344 -1.32279968 C301.34983752 -1.35484094 302.54440161 -1.38688219 303.7751646 -1.4198944 C308.75084216 -1.32138428 311.76997151 -1.1850367 315.44652557 2.35703695 C317.50841185 5.15708685 319.27352225 7.98404587 321 11 C322.14601274 12.71739189 323.30187644 14.42830203 324.47265625 16.12890625 C325.67118705 17.93883671 326.86770016 19.75010443 328.0625 21.5625 C329.46771297 23.6816776 330.87402902 25.80012402 332.28125 27.91796875 C332.84006615 28.75899139 332.84006615 28.75899139 333.41017151 29.61700439 C338.25351023 36.89714173 343.1591877 44.13518657 348.0625 51.375 C348.547258 52.09089294 349.03201599 52.80678589 349.53146362 53.54437256 C352.02166545 57.22178094 354.51240302 60.89882597 357.00341797 64.57568359 C359.95348417 68.93062311 362.90098063 73.28729705 365.84765625 77.64453125 C366.32576248 78.35150146 366.80386871 79.05847168 367.29646301 79.78686523 C368.25891693 81.21005874 369.22136506 82.63325616 370.18380737 84.05645752 C377.95072158 95.54112918 385.72296412 107.02218038 393.5 118.5 C403.7054902 133.56187929 413.89999872 148.63117399 424.09277344 163.70166016 C428.41626437 170.09406642 432.74041307 176.48602771 437.06451416 182.87802124 C439.45970324 186.41866247 441.85484944 189.95933271 444.25 193.5 C445.20833313 194.91666681 446.16666646 196.33333347 447.125 197.75 C472.04166667 234.58333333 496.95833333 271.41666667 521.875 308.25 C522.34936493 308.95123489 522.82372986 309.65246979 523.31246948 310.37495422 C524.27090536 311.79177292 525.22934042 313.20859218 526.18777466 314.62541199 C528.5820323 318.16475711 530.97630417 321.70409261 533.37060547 325.2434082 C537.70192645 331.64610443 542.03314117 338.04887241 546.36383057 344.45199585 C556.07107874 358.80459124 565.78065023 373.15559614 575.5 387.5 C585.7054902 402.56187929 595.89999872 417.63117399 606.09277344 432.70166016 C608.9808952 436.97183163 611.86930733 441.24180662 614.7578125 445.51171875 C615.46890671 446.56289131 615.46890671 446.56289131 616.19436646 447.63529968 C618.58478934 451.16891419 620.97524577 454.702506 623.36572266 458.23608398 C627.71591092 464.66655756 632.06591116 471.09715784 636.41481018 477.52850342 C637.88767635 479.70657704 639.36070409 481.88454133 640.83374023 484.0625 C642.75845013 486.90836893 644.68235801 489.75477765 646.60571289 492.6015625 C651.27484757 499.51003003 655.95790245 506.40842651 660.66796875 513.2890625 C662.00004148 515.23854131 663.33179442 517.18823818 664.66345215 519.13800049 C665.91061573 520.96070909 667.16274448 522.77993566 668.41503906 524.59912109 C669.15334961 525.68016113 669.89166016 526.76120117 670.65234375 527.875 C671.30195068 528.82117187 671.95155762 529.76734375 672.62084961 530.7421875 C674 533 674 533 674 535 C634.4674227 535.68785227 594.93562992 536.21587533 555.39825599 536.53195988 C550.72236271 536.56947754 546.0464812 536.60830755 541.37060547 536.64794922 C540.43978925 536.65581853 539.50897304 536.66368784 538.54995027 536.67179562 C523.51078133 536.80206416 508.47508012 537.03843072 493.43796322 537.31458388 C477.98855401 537.59592537 462.54095021 537.76192338 447.08908486 537.82265484 C438.41641038 537.86000425 429.75100601 537.94995939 421.08092499 538.1719017 C364.73732455 539.57336686 364.73732455 539.57336686 354.18460548 530.29731452 C348.23716451 523.99741361 344.8269786 516.62461362 342.20474625 508.45466518 C340.60178098 503.85808868 338.20123714 500.3125381 335.26171875 496.484375 C334.48294417 495.35124318 333.70986458 494.21414776 332.94580078 493.07104492 C332.39524017 492.26139786 332.39524017 492.26139786 331.83355713 491.43539429 C330.58820487 489.60397635 329.34450392 487.77144445 328.10107422 485.9387207 C326.75785798 483.9589228 325.41457739 481.97916913 324.07086182 479.99971008 C319.3957898 473.11243527 314.7318011 466.21767603 310.06869507 459.32229614 C308.6231439 457.18475539 307.17743944 455.04731839 305.73168945 452.90991211 C302.33488422 447.88800568 298.93831722 442.86593815 295.54174805 437.84387207 C292.1529567 432.83333038 288.76406026 427.8228598 285.375 422.8125 C284.89758362 422.10668793 284.42016724 421.40087585 283.92828369 420.67367554 C277.12294881 410.61300847 270.31320453 400.55533905 263.5 390.5 C256.20398764 379.73210396 248.91241817 368.96121434 241.625 358.1875 C241.14774475 357.48192963 240.6704895 356.77635925 240.17877197 356.04940796 C236.29958201 350.31435242 232.42065992 344.5791157 228.54174805 338.84387207 C225.1529567 333.83333038 221.76406026 328.8228598 218.375 323.8125 C217.89758362 323.10668793 217.42016724 322.40087585 216.92828369 321.67367554 C210.12294881 311.61300847 203.31320453 301.55533905 196.5 291.5 C189.20398764 280.73210396 181.91241817 269.96121434 174.625 259.1875 C174.14774475 258.48192963 173.6704895 257.77635925 173.17877197 257.04940796 C169.29958201 251.31435242 165.42065992 245.5791157 161.54174805 239.84387207 C158.1529567 234.83333038 154.76406026 229.8228598 151.375 224.8125 C150.89758362 224.10668793 150.42016724 223.40087585 149.92828369 222.67367554 C143.12294881 212.61300847 136.31320453 202.55533905 129.5 192.5 C122.20398764 181.73210396 114.91241817 170.96121434 107.625 160.1875 C107.14774475 159.48192963 106.6704895 158.77635925 106.17877197 158.04940796 C102.29958201 152.31435242 98.42065992 146.5791157 94.54174805 140.84387207 C91.1529567 135.83333038 87.76406026 130.8228598 84.375 125.8125 C83.89758362 125.10668793 83.42016724 124.40087585 82.92828369 123.67367554 C76.12294881 113.61300847 69.31320453 103.55533905 62.5 93.5 C52.80626768 79.19340393 43.12227188 64.88023619 33.44087219 50.56529236 C30.37566368 46.03327965 27.30957232 41.50186546 24.24285889 36.97087097 C22.14546055 33.87200837 20.04828271 30.77299658 17.95111084 27.67398071 C16.95614223 26.20383526 15.96106883 24.73376072 14.96588135 23.26376343 C12.3434793 19.39014447 9.7228773 15.51532678 7.10614014 11.63787842 C6.07904061 10.11703662 5.04962605 8.59775898 4.02001953 7.07861328 C3.46813965 6.25989746 2.91625977 5.44118164 2.34765625 4.59765625 C1.88496338 3.91324463 1.42227051 3.22883301 0.94555664 2.52368164 C0 1 0 1 0 0 Z " fill="#000000" transform="translate(990,1028)"/>
<path d="M0 0 C39.7379979 -0.25177077 79.47589185 -0.44560231 119.21452796 -0.56171862 C123.90587802 -0.57547642 128.59722651 -0.58971396 133.28857422 -0.60424805 C134.68952013 -0.60857617 134.68952013 -0.60857617 136.11876798 -0.61299173 C151.24204634 -0.66085815 166.36486481 -0.74758886 181.48787034 -0.84868076 C197.00521055 -0.95154362 212.5223099 -1.01264551 228.03997707 -1.03497344 C237.61573178 -1.05006825 247.19018668 -1.09774115 256.76554126 -1.18708114 C263.3315498 -1.24522305 269.89688634 -1.26280273 276.46313363 -1.24851515 C280.25226472 -1.2414675 284.03912501 -1.25227155 287.82785225 -1.31126022 C291.93847559 -1.37479258 296.04427069 -1.35286844 300.15527344 -1.32279968 C301.34983752 -1.35484094 302.54440161 -1.38688219 303.7751646 -1.4198944 C308.75084216 -1.32138428 311.76997151 -1.1850367 315.44652557 2.35703695 C317.50841185 5.15708685 319.27352225 7.98404587 321 11 C322.14601274 12.71739189 323.30187644 14.42830203 324.47265625 16.12890625 C325.67118705 17.93883671 326.86770016 19.75010443 328.0625 21.5625 C329.46771297 23.6816776 330.87402902 25.80012402 332.28125 27.91796875 C332.84006615 28.75899139 332.84006615 28.75899139 333.41017151 29.61700439 C338.25351023 36.89714173 343.1591877 44.13518657 348.0625 51.375 C348.547258 52.09089294 349.03201599 52.80678589 349.53146362 53.54437256 C352.02166545 57.22178094 354.51240302 60.89882597 357.00341797 64.57568359 C359.95348417 68.93062311 362.90098063 73.28729705 365.84765625 77.64453125 C366.32576248 78.35150146 366.80386871 79.05847168 367.29646301 79.78686523 C368.25891693 81.21005874 369.22136506 82.63325616 370.18380737 84.05645752 C377.95072158 95.54112918 385.72296412 107.02218038 393.5 118.5 C403.7054902 133.56187929 413.89999872 148.63117399 424.09277344 163.70166016 C428.41626437 170.09406642 432.74041307 176.48602771 437.06451416 182.87802124 C439.45970324 186.41866247 441.85484944 189.95933271 444.25 193.5 C445.20833313 194.91666681 446.16666646 196.33333347 447.125 197.75 C472.04166667 234.58333333 496.95833333 271.41666667 521.875 308.25 C522.34936493 308.95123489 522.82372986 309.65246979 523.31246948 310.37495422 C524.27090536 311.79177292 525.22934042 313.20859218 526.18777466 314.62541199 C528.5820323 318.16475711 530.97630417 321.70409261 533.37060547 325.2434082 C537.70192645 331.64610443 542.03314117 338.04887241 546.36383057 344.45199585 C556.07107874 358.80459124 565.78065023 373.15559614 575.5 387.5 C585.7054902 402.56187929 595.89999872 417.63117399 606.09277344 432.70166016 C608.9808952 436.97183163 611.86930733 441.24180662 614.7578125 445.51171875 C615.46890671 446.56289131 615.46890671 446.56289131 616.19436646 447.63529968 C618.58478934 451.16891419 620.97524577 454.702506 623.36572266 458.23608398 C627.71591092 464.66655756 632.06591116 471.09715784 636.41481018 477.52850342 C637.88767635 479.70657704 639.36070409 481.88454133 640.83374023 484.0625 C642.75845013 486.90836893 644.68235801 489.75477765 646.60571289 492.6015625 C651.27484757 499.51003003 655.95790245 506.40842651 660.66796875 513.2890625 C662.00004148 515.23854131 663.33179442 517.18823818 664.66345215 519.13800049 C665.91061573 520.96070909 667.16274448 522.77993566 668.41503906 524.59912109 C669.15334961 525.68016113 669.89166016 526.76120117 670.65234375 527.875 C671.30195068 528.82117188 671.95155762 529.76734375 672.62084961 530.7421875 C674 533 674 533 674 535 C634.4674227 535.68785227 594.93562992 536.21587533 555.39825599 536.53195988 C550.72236271 536.56947754 546.0464812 536.60830755 541.37060547 536.64794922 C540.43978925 536.65581853 539.50897304 536.66368784 538.54995027 536.67179562 C523.51078133 536.80206416 508.47508012 537.03843072 493.43796322 537.31458388 C477.98855401 537.59592537 462.54095021 537.76192338 447.08908486 537.82265484 C438.41641038 537.86000425 429.75100601 537.94995939 421.08092499 538.1719017 C364.73732455 539.57336686 364.73732455 539.57336686 354.18460548 530.29731452 C348.23716451 523.99741361 344.8269786 516.62461362 342.20474625 508.45466518 C340.60178098 503.85808868 338.20123714 500.3125381 335.26171875 496.484375 C334.48294417 495.35124318 333.70986458 494.21414776 332.94580078 493.07104492 C332.39524017 492.26139786 332.39524017 492.26139786 331.83355713 491.43539429 C330.58820487 489.60397635 329.34450392 487.77144445 328.10107422 485.9387207 C326.75785798 483.9589228 325.41457739 481.97916913 324.07086182 479.99971008 C319.3957898 473.11243527 314.7318011 466.21767603 310.06869507 459.32229614 C308.6231439 457.18475539 307.17743944 455.04731839 305.73168945 452.90991211 C302.33488422 447.88800568 298.93831722 442.86593815 295.54174805 437.84387207 C292.1529567 432.83333038 288.76406026 427.8228598 285.375 422.8125 C284.89758362 422.10668793 284.42016724 421.40087585 283.92828369 420.67367554 C277.12294881 410.61300847 270.31320453 400.55533905 263.5 390.5 C256.20398764 379.73210396 248.91241817 368.96121434 241.625 358.1875 C241.14774475 357.48192963 240.6704895 356.77635925 240.17877197 356.04940796 C236.29958201 350.31435242 232.42065992 344.5791157 228.54174805 338.84387207 C225.1529567 333.83333038 221.76406026 328.8228598 218.375 323.8125 C217.89758362 323.10668793 217.42016724 322.40087585 216.92828369 321.67367554 C210.12294881 311.61300847 203.31320453 301.55533905 196.5 291.5 C189.20398764 280.73210396 181.91241817 269.96121434 174.625 259.1875 C174.14774475 258.48192963 173.6704895 257.77635925 173.17877197 257.04940796 C169.29958201 251.31435242 165.42065992 245.5791157 161.54174805 239.84387207 C158.1529567 234.83333038 154.76406026 229.8228598 151.375 224.8125 C150.89758362 224.10668793 150.42016724 223.40087585 149.92828369 222.67367554 C143.12294881 212.61300847 136.31320453 202.55533905 129.5 192.5 C122.20398764 181.73210396 114.91241817 170.96121434 107.625 160.1875 C107.14774475 159.48192963 106.6704895 158.77635925 106.17877197 158.04940796 C102.29958201 152.31435242 98.42065992 146.5791157 94.54174805 140.84387207 C91.1529567 135.83333038 87.76406026 130.8228598 84.375 125.8125 C83.89758362 125.10668793 83.42016724 124.40087585 82.92828369 123.67367554 C76.12294881 113.61300847 69.31320453 103.55533905 62.5 93.5 C52.80626768 79.19340393 43.12227188 64.88023619 33.44087219 50.56529236 C30.37566368 46.03327965 27.30957232 41.50186546 24.24285889 36.97087097 C22.14546055 33.87200837 20.04828271 30.77299658 17.95111084 27.67398071 C16.95614223 26.20383526 15.96106883 24.73376072 14.96588135 23.26376343 C12.3434793 19.39014447 9.7228773 15.51532678 7.10614014 11.63787842 C6.07904061 10.11703662 5.04962605 8.59775898 4.02001953 7.07861328 C3.46813965 6.25989746 2.91625977 5.44118164 2.34765625 4.59765625 C1.88496338 3.91324463 1.42227051 3.22883301 0.94555664 2.52368164 C0 1 0 1 0 0 Z " fill="#000000" transform="translate(271,449)"/>
<path d="M0 0 C1.79621539 0.04369262 1.79621539 0.04369262 3.62871796 0.08826792 C4.91285082 0.07972367 6.19698368 0.07117943 7.52002966 0.06237626 C11.07404411 0.04006525 14.62503227 0.07992951 18.17866105 0.13015687 C22.01428982 0.17340919 25.84975286 0.15872325 29.68555695 0.15113413 C36.327675 0.14589462 42.96880952 0.17722391 49.61068016 0.23351252 C59.21348921 0.31484148 68.81582348 0.34083258 78.4189396 0.35339244 C93.99967904 0.3752699 109.57989446 0.44179444 125.16034943 0.53641856 C140.29378633 0.62823216 155.42708081 0.69900466 170.56074005 0.74149668 C171.96037588 0.74543753 171.96037588 0.74543753 173.38828718 0.749458 C178.06940614 0.76250853 182.75052612 0.77514557 187.43164676 0.78757703 C226.25621337 0.89121667 265.08019503 1.06732344 303.90424591 1.29081309 C303.11344974 2.73213156 302.3204645 4.17224912 301.52656037 5.61185801 C301.08520249 6.41395197 300.64384461 7.21604594 300.18911225 8.04244578 C298.66361366 10.71189166 296.94772695 13.15341812 295.09174591 15.60331309 C291.68943501 20.19013223 288.48917311 24.86648481 285.34174591 29.63065684 C280.28983182 37.24975923 275.08792932 44.76959723 269.93158966 52.31815684 C267.88676157 55.31645005 265.84781945 58.31866644 263.81049591 61.32206309 C263.14542023 62.30126719 262.48034455 63.28047129 261.79511505 64.28934824 C260.52980302 66.15260363 259.26587868 68.01680244 258.00361115 69.88212168 C257.42296906 70.73628672 256.84232697 71.59045176 256.24408966 72.47050059 C255.49180084 73.5801417 255.49180084 73.5801417 254.72431427 74.71219981 C254.12369171 75.56314219 253.52306916 76.41408457 252.90424591 77.29081309 C252.55869498 77.94025181 252.21314405 78.58969053 251.85712188 79.25880921 C249.80197647 82.6866156 248.24355244 84.91201849 244.29746419 86.0280863 C240.94173905 86.30268963 237.66662701 86.31820378 234.30002838 86.25284922 C233.01674995 86.25968462 231.73347151 86.26652002 230.41130584 86.27356255 C226.85544345 86.29143186 223.30151265 86.25948568 219.7458964 86.21933806 C215.90956661 86.18476886 212.07334451 86.19648275 208.23690277 86.20255625 C201.59218679 86.20674983 194.94809955 86.1816645 188.30354172 86.13665354 C178.69675673 86.07161851 169.09027556 86.05080023 159.48329429 86.04074961 C143.89655115 86.02324335 128.31014307 85.97001171 112.72358185 85.89432871 C97.58329942 85.82088916 82.44310801 85.76426548 67.30268341 85.73026621 C65.9026535 85.72711353 65.9026535 85.72711353 64.47434016 85.72389716 C59.79195023 85.71345681 55.10955967 85.70334716 50.42716867 85.69340193 C11.58595982 85.61047682 -27.25487502 85.4695794 -66.09575409 85.29081309 C-65.00154471 83.56347233 -63.90628458 81.83679717 -62.81059784 80.11039317 C-62.20079071 79.14877772 -61.59098358 78.18716227 -60.96269745 77.19640696 C-58.0934056 72.73082059 -55.10004293 68.35373833 -52.09575409 63.97831309 C-50.77538827 62.04866207 -49.45507735 60.11897348 -48.13481659 58.18925059 C-47.46611542 57.21310801 -46.79741424 56.23696543 -46.1084494 55.23124278 C-43.51677789 51.44496286 -40.93293078 47.65338437 -38.34966034 43.86136973 C-32.93768352 35.9170997 -27.51967905 27.97693013 -22.09575409 20.04081309 C-21.59221405 19.30322764 -21.08867401 18.56564219 -20.56987518 17.80570567 C-19.61953453 16.41608036 -18.65844159 15.03371814 -17.6843853 13.66061211 C-16.04958725 11.30624262 -16.04958725 11.30624262 -14.71888006 8.71986985 C-10.785618 1.90284354 -7.82876968 0.14116005 0 0 Z " fill="#000000" transform="translate(642.0957540869713,1026.709186911583)"/>
<path d="M0 0 C0.95043999 0.00037972 1.90087997 0.00075944 2.88012117 0.00115067 C3.97241504 -0.00084038 5.0647089 -0.00283143 6.19010258 -0.00488281 C8.01253354 -0.00051355 8.01253354 -0.00051355 9.87178129 0.00394398 C11.1507876 0.00308955 12.42979392 0.00223513 13.747558 0.00135481 C17.31400243 -0.00089256 20.88041711 0.00313442 24.44685775 0.00813287 C28.28668519 0.01243374 32.12651083 0.01099121 35.96634001 0.0102306 C42.6245275 0.00970513 49.28270522 0.0128543 55.94089025 0.01846844 C65.56761995 0.02658037 75.1943449 0.02919834 84.82107764 0.03045643 C100.43815549 0.03264743 116.05522812 0.03930883 131.67230314 0.04875904 C146.84678204 0.05793191 162.02125953 0.06501336 177.19574064 0.06926686 C178.13040753 0.06952958 179.06507442 0.0697923 180.02806456 0.07006299 C184.71680822 0.07136798 189.40555189 0.0726317 194.09429556 0.07387489 C233.01914614 0.08424901 271.9439909 0.10186863 310.86883634 0.1241985 C309.7473206 1.89022867 308.62533259 3.65595894 307.5031442 5.42156178 C306.8783876 6.40488484 306.253631 7.3882079 305.60994238 8.40132862 C303.7576501 11.29807973 301.86139981 14.15901714 299.92352384 16.9991985 C299.24596037 17.99395191 298.56839689 18.98870533 297.87030119 20.01360279 C296.81770109 21.55334767 296.81770109 21.55334767 295.74383634 23.1241985 C294.99191035 24.22672645 294.24012225 25.32934846 293.48846525 26.43205982 C291.28431342 29.66440835 289.07691221 32.89452909 286.86883634 36.1241985 C286.27200041 36.99737721 285.67516447 37.87055592 285.06024259 38.77019459 C282.94149861 41.86916924 280.82207055 44.96767046 278.70037931 48.06462818 C275.76310644 52.35225496 272.83226683 56.64416329 269.90789884 60.94060475 C269.23581388 61.92778492 268.56372892 62.9149651 267.87127775 63.93205982 C266.57340548 65.83899212 265.27616526 67.74635482 263.97967619 69.65422779 C263.08949796 70.96194142 263.08949796 70.96194142 262.18133634 72.2960735 C261.66184416 73.06016529 261.14235197 73.82425709 260.60711759 74.61150318 C260.03348478 75.44069264 259.45985197 76.26988209 258.86883634 77.1241985 C258.59671349 77.70072055 258.32459064 78.2772426 258.04422164 78.87123501 C256.85520247 81.07139696 255.79097014 82.50820386 253.86883634 84.1241985 C249.72481318 85.18607345 245.64238824 85.03812345 241.38487333 84.96598011 C239.46123731 84.97495157 239.46123731 84.97495157 237.49873996 84.98410428 C233.94078992 84.99975893 230.38431455 84.97175867 226.82655245 84.93665785 C222.98952262 84.90643832 219.15257645 84.91665747 215.3154611 84.92197376 C208.66806088 84.92564492 202.02114148 84.90367628 195.37386221 84.86430889 C185.76308957 84.80742776 176.15254951 84.7891897 166.54162679 84.78039295 C150.94882329 84.76507117 135.35627607 84.71848304 119.76361173 84.65227467 C104.61648937 84.58802499 89.4694366 84.53847437 74.32220548 84.50871998 C73.38858949 84.50688092 72.45497349 84.50504185 71.49306609 84.50314706 C66.8094054 84.49401182 62.12574422 84.48516586 57.4420827 84.47646374 C18.58415447 84.40389239 -20.27348769 84.28059668 -59.13116366 84.1241985 C-58.34375738 82.6876897 -57.55399225 81.25247373 -56.76324373 79.81780201 C-56.3236986 79.01842716 -55.88415346 78.21905232 -55.43128878 77.39545399 C-53.75173802 74.46136032 -51.83215143 71.77615182 -49.81866366 69.0616985 C-45.05659577 62.54635756 -40.58487716 55.85308832 -36.13116366 49.1241985 C-31.14355744 41.59840109 -26.08912269 34.1626737 -20.78741366 26.85466725 C-16.41003016 20.76780397 -12.24710178 14.52802573 -8.04302889 8.32097584 C-7.4211368 7.403969 -6.79924471 6.48696217 -6.15850741 5.54216725 C-5.31920687 4.30116261 -5.31920687 4.30116261 -4.46295077 3.03508717 C-2.44704717 0.14260734 -2.44704717 0.14260734 0 0 Z " fill="#000000" transform="translate(1049.1311636567116,899.8758015036583)"/>
</svg>
